<?xml version="1.0" encoding="UTF-8" standalone="no"?>
<!DOCTYPE svg PUBLIC "-//W3C//DTD SVG 1.1//EN" "http://www.w3.org/Graphics/SVG/1.1/DTD/svg11.dtd">
<svg xmlns="http://www.w3.org/2000/svg" version="1.1" xmlns:xl="http://www.w3.org/1999/xlink" xmlns:dc="http://purl.org/dc/elements/1.1/" viewBox="1647 6201 721 830" width="721" height="830">
  <defs>
    <filter id="Shadow" filterUnits="userSpaceOnUse" x="1574.9" y="6118">
      <feGaussianBlur in="SourceAlpha" result="blur" stdDeviation="1.308"/>
      <feOffset in="blur" result="offset" dx="0" dy="2"/>
      <feFlood flood-color="black" flood-opacity=".5" result="flood"/>
      <feComposite in="flood" in2="offset" operator="in" result="color"/>
      <feMerge>
        <feMergeNode in="color"/>
        <feMergeNode in="SourceGraphic"/>
      </feMerge>
    </filter>
    <marker orient="auto" overflow="visible" markerUnits="strokeWidth" id="FilledArrow_Marker" stroke-linejoin="miter" stroke-miterlimit="10" viewBox="-1 -4 10 8" markerWidth="10" markerHeight="8" color="white">
      <g>
        <path d="M 8 0 L 0 -3 L 0 3 Z" fill="currentColor" stroke="currentColor" stroke-width="1"/>
      </g>
    </marker>
    <marker orient="auto" overflow="visible" markerUnits="strokeWidth" id="FilledArrow_Marker_2" stroke-linejoin="miter" stroke-miterlimit="10" viewBox="-1 -3 7 6" markerWidth="7" markerHeight="6" color="#ff2600">
      <g>
        <path d="M 4.8 0 L 0 -1.8 L 0 1.8 Z" fill="currentColor" stroke="currentColor" stroke-width="1"/>
      </g>
    </marker>
    <marker orient="auto" overflow="visible" markerUnits="strokeWidth" id="FilledArrow_Marker_3" stroke-linejoin="miter" stroke-miterlimit="10" viewBox="-1 -3 7 6" markerWidth="7" markerHeight="6" color="#009193">
      <g>
        <path d="M 4.8 0 L 0 -1.8 L 0 1.8 Z" fill="currentColor" stroke="currentColor" stroke-width="1"/>
      </g>
    </marker>
    <marker orient="auto" overflow="visible" markerUnits="strokeWidth" id="FilledArrow_Marker_4" stroke-linejoin="miter" stroke-miterlimit="10" viewBox="-1 -3 7 6" markerWidth="7" markerHeight="6" color="#0432ff">
      <g>
        <path d="M 4.8 0 L 0 -1.8 L 0 1.8 Z" fill="currentColor" stroke="currentColor" stroke-width="1"/>
      </g>
    </marker>
  </defs>
  <g id="firm_wallet" stroke="none" stroke-opacity="1" stroke-dasharray="none" fill="none" fill-opacity="1">
    <title>firm wallet</title>
    <rect fill="white" x="1647" y="6201" width="721" height="830"/>
    <g id="firm_wallet_Layer_1">
      <title>Layer 1</title>
      <g id="Graphic_121">
        <path d="M 1657 6201 L 2358 6201 C 2363.5228 6201 2368 6205.477 2368 6211 L 2368 7021 C 2368 7026.523 2363.5228 7031 2358 7031 L 1657 7031 C 1651.4772 7031 1647 7026.523 1647 7021 L 1647 6211 C 1647 6205.477 1651.4772 6201 1657 6201 Z" fill="#999"/>
      </g>
      <g id="Graphic_10" filter="url(#Shadow)">
        <circle cx="2015" cy="6539.5" r="149.500238886333" fill="#5e5e5e"/>
      </g>
      <g id="Graphic_5" filter="url(#Shadow)">
        <circle cx="2097" cy="6576.5" r="40.5000647150271" fill="#c0ffc0"/>
      </g>
      <g id="Line_6">
        <line x1="2037.5966" y1="6488.119" x2="2068.8808" y2="6534.664" marker-end="url(#FilledArrow_Marker)" stroke="white" stroke-linecap="round" stroke-linejoin="round" stroke-width="1"/>
      </g>
      <g id="Line_7">
        <line x1="1992.5942" y1="6488.247" x2="1961.8818" y2="6534.505" marker-end="url(#FilledArrow_Marker)" stroke="white" stroke-linecap="round" stroke-linejoin="round" stroke-width="1"/>
      </g>
      <g id="Graphic_8">
        <rect x="2026.9476" y="6506.434" width="56" height="15" fill="#5e5e5e"/>
        <text transform="translate(2027.9476 6507.434)" fill="white">
          <tspan font-family="PragmataPro Mono Liga" font-size="12" fill="white" x="0" y="11">Consensus</tspan>
        </text>
      </g>
      <g id="Graphic_9">
        <rect x="1947.3692" y="6506.691" width="56" height="15" fill="#5e5e5e"/>
        <text transform="translate(1948.3692 6507.691)" fill="white">
          <tspan font-family="PragmataPro Mono Liga" font-size="12" fill="white" x="0" y="11">Consensus</tspan>
        </text>
      </g>
      <g id="Graphic_11">
        <text transform="translate(1959 6638)" fill="white">
          <tspan font-family="PragmataPro Mono Liga" font-size="16" fill="white" x="0" y="15">Wallet Service</tspan>
        </text>
      </g>
      <g id="Line_12">
        <line x1="2015" y1="6272" x2="2015" y2="6401.1" marker-end="url(#FilledArrow_Marker_2)" stroke="#ff2600" stroke-linecap="round" stroke-linejoin="round" stroke-width="2"/>
      </g>
      <g id="Line_16">
        <line x1="2055.5" y1="6454.5" x2="2217.1" y2="6454.5" marker-end="url(#FilledArrow_Marker_2)" stroke="#ff2600" stroke-linecap="round" stroke-linejoin="round" stroke-width="2"/>
      </g>
      <g id="Graphic_17">
        <rect x="2155.4247" y="6435.5" width="58" height="38" fill="#999"/>
        <text transform="translate(2156.4247 6436.5)" fill="white">
          <tspan font-family="PragmataPro Mono Liga" font-size="16" fill="white" x="12" y="15">Push</tspan>
          <tspan font-family="PragmataPro Mono Liga" font-size="16" fill="white" x="0" y="33">(in ms)</tspan>
        </text>
      </g>
      <g id="Line_18">
        <path d="M 1786.7534 6556.771 C 1799.2116 6554.542 1813.1089 6553.052 1828 6553.052 C 1848.3997 6553.052 1867.3516 6555.8486 1883.4228 6559.51" marker-end="url(#FilledArrow_Marker_3)" stroke="#009193" stroke-linecap="round" stroke-linejoin="round" stroke-width="2"/>
      </g>
      <g id="Line_19">
        <path d="M 1895.8203 6590.04 C 1876.9117 6595.238 1852.474 6599.948 1826 6599.948 C 1816.6737 6599.948 1807.787 6599.3635 1799.4338 6598.379" marker-end="url(#FilledArrow_Marker_3)" stroke="#009193" stroke-linecap="round" stroke-linejoin="round" stroke-width="2"/>
      </g>
      <g id="Graphic_20">
        <rect x="1813.1788" y="6543.0626" width="34" height="20" fill="#999"/>
        <text transform="translate(1814.1788 6544.0626)" fill="white">
          <tspan font-family="PragmataPro Mono Liga" font-size="16" fill="white" x="0" y="15">Pull</tspan>
        </text>
      </g>
      <g id="Graphic_21">
        <rect x="1809.7432" y="6589.7794" width="50" height="20" fill="#999"/>
        <text transform="translate(1810.7432 6590.7794)" fill="white">
          <tspan font-family="PragmataPro Mono Liga" font-size="16" fill="white" x="0" y="15">in min</tspan>
        </text>
      </g>
      <g id="Line_22">
        <path d="M 1772.3344 6602.25 C 1804.7023 6621.609 1849.6676 6651.483 1893.5 6690.5 C 1934.7297 6727.2005 1965.2109 6763.316 1985.331 6790.16" marker-end="url(#FilledArrow_Marker_2)" stroke="#ff2600" stroke-linecap="round" stroke-linejoin="round" stroke-width="2"/>
      </g>
      <g id="Line_24">
        <line x1="2015" y1="6868.948" x2="2015" y2="6943.1" marker-end="url(#FilledArrow_Marker_4)" stroke="#0432ff" stroke-linecap="round" stroke-linejoin="round" stroke-width="2"/>
      </g>
      <g id="Line_25">
        <path d="M 2055.5 6829.769 C 2086.8239 6826.496 2104.6074 6823.261 2152.6135 6799.462 C 2217.6834 6767.204 2251.0753 6712.454 2251.0753 6712.454 C 2251.0753 6712.454 2284.4086 6671.505 2298.387 6598.5 C 2306.6395 6555.4 2304.8716 6519.057 2300.7845 6492.939" marker-end="url(#FilledArrow_Marker_4)" stroke="#0432ff" stroke-linecap="round" stroke-linejoin="round" stroke-width="2"/>
      </g>
      <g id="Graphic_26">
        <rect x="2228.5365" y="6710.562" width="34" height="20" fill="#999"/>
        <text transform="translate(2229.5365 6711.562)" fill="white">
          <tspan font-family="PragmataPro Mono Liga" font-size="16" fill="white" x="0" y="15">Read</tspan>
        </text>
      </g>
      <g id="Graphic_27">
        <rect x="1862.9146" y="6708.466" width="138" height="38" fill="#999"/>
        <text transform="translate(1863.9146 6709.466)" fill="white">
          <tspan font-family="PragmataPro Mono Liga" font-size="16" fill="white" x="48" y="15">Write</tspan>
          <tspan font-family="PragmataPro Mono Liga" font-size="16" fill="white" x="0" y="33">Operation history</tspan>
        </text>
      </g>
      <g id="Graphic_28">
        <rect x="1998" y="6896.0724" width="34" height="20" fill="#999"/>
        <text transform="translate(1999 6897.0724)" fill="white">
          <tspan font-family="PragmataPro Mono Liga" font-size="16" fill="white" x="0" y="15">Read</tspan>
        </text>
      </g>
      <g id="Line_29">
        <path d="M 1974.5 6830.323 C 1935.0433 6823.915 1873.77 6806.916 1823.1183 6761.828 C 1771.333 6715.731 1746.025 6653.962 1734.404 6614.688" marker-end="url(#FilledArrow_Marker_4)" stroke="#0432ff" stroke-linecap="round" stroke-linejoin="round" stroke-width="2"/>
      </g>
      <g id="Graphic_30">
        <rect x="1766.3645" y="6707.209" width="34" height="20" fill="#999"/>
        <text transform="translate(1767.3645 6708.209)" fill="white">
          <tspan font-family="PragmataPro Mono Liga" font-size="16" fill="white" x="0" y="15">Read</tspan>
        </text>
      </g>
      <g id="Line_31">
        <path d="M 1953.5 6261.0694 C 1906.7208 6273.369 1842.6973 6298.9135 1796.2366 6351.312 C 1741.8757 6412.621 1728.5008 6491.585 1725.6617 6537.867" marker-end="url(#FilledArrow_Marker_4)" stroke="#0432ff" stroke-linecap="round" stroke-linejoin="round" stroke-width="2"/>
      </g>
      <g id="Line_32">
        <path d="M 2076.5 6259.9806 C 2109.625 6268.342 2151.318 6283.63 2189 6311.5 C 2234.0742 6344.837 2261.2135 6387.156 2276.134 6417.0826" marker-end="url(#FilledArrow_Marker_4)" stroke="#0432ff" stroke-linecap="round" stroke-linejoin="round" stroke-width="2"/>
      </g>
      <g id="Graphic_33">
        <rect x="2194.3612" y="6327.0535" width="82" height="56" fill="#999"/>
        <text transform="translate(2195.3612 6328.0535)" fill="white">
          <tspan font-family="PragmataPro Mono Liga" font-size="16" fill="white" x="20" y="15">Query</tspan>
          <tspan font-family="PragmataPro Mono Liga" font-size="16" fill="white" x="4" y="33">Real-time </tspan>
          <tspan font-family="PragmataPro Mono Liga" font-size="16" fill="white" x="12" y="51">balance</tspan>
        </text>
      </g>
      <g id="Graphic_34">
        <rect x="1724.9635" y="6325.9136" width="138" height="56" fill="#999"/>
        <text transform="translate(1725.9635 6326.9136)" fill="white">
          <tspan font-family="PragmataPro Mono Liga" font-size="16" fill="white" x="48" y="15">Query</tspan>
          <tspan font-family="PragmataPro Mono Liga" font-size="16" fill="white" x="12" y="33">Near real-time</tspan>
          <tspan font-family="PragmataPro Mono Liga" font-size="16" fill="white" x="0" y="51">Operation history</tspan>
        </text>
      </g>
      <g id="Graphic_36">
        <rect x="1982" y="6327.088" width="66" height="20" fill="#999"/>
        <text transform="translate(1983 6328.088)" fill="white">
          <tspan font-family="PragmataPro Mono Liga" font-size="16" fill="white" x="0" y="15">Commands</tspan>
        </text>
      </g>
      <g id="Graphic_2" filter="url(#Shadow)">
        <path d="M 1961.5 6228 L 2068.5 6228 C 2072.9183 6228 2076.5 6231.582 2076.5 6236 L 2076.5 6264 C 2076.5 6268.418 2072.9183 6272 2068.5 6272 L 1961.5 6272 C 1957.0817 6272 1953.5 6268.418 1953.5 6264 L 1953.5 6236 C 1953.5 6231.582 1957.0817 6228 1961.5 6228 Z" fill="#c0c0ff"/>
        <text transform="translate(1954.5 6241)" fill="black">
          <tspan font-family="PragmataPro Mono Liga" font-size="16" fill="black" x="36.5" y="15">Client</tspan>
        </text>
      </g>
      <g id="Graphic_13" filter="url(#Shadow)">
        <path d="M 2238 6428.75 L 2345 6428.75 C 2349.4183 6428.75 2353 6432.332 2353 6436.75 L 2353 6472.25 C 2353 6476.668 2349.4183 6480.25 2345 6480.25 L 2238 6480.25 C 2233.5817 6480.25 2230 6476.668 2230 6472.25 L 2230 6436.75 C 2230 6432.332 2233.5817 6428.75 2238 6428.75 Z" fill="#ffc0c0"/>
        <text transform="translate(2231 6436.5)" fill="black">
          <tspan font-family="PragmataPro Mono Liga" font-size="16" fill="black" x="8.5" y="15">Query Service</tspan>
          <tspan font-family="PragmataPro Mono Liga" font-size="16" fill="black" x="44.5" y="33">OLTP</tspan>
        </text>
      </g>
      <g id="Graphic_14" filter="url(#Shadow)">
        <path d="M 1961.5 6956 L 2068.5 6956 C 2072.9183 6956 2076.5 6959.582 2076.5 6964 L 2076.5 6999.5 C 2076.5 7003.918 2072.9183 7007.5 2068.5 7007.5 L 1961.5 7007.5 C 1957.0817 7007.5 1953.5 7003.918 1953.5 6999.5 L 1953.5 6964 C 1953.5 6959.582 1957.0817 6956 1961.5 6956 Z" fill="#ffc0c0"/>
        <text transform="translate(1954.5 6963.75)" fill="black">
          <tspan font-family="PragmataPro Mono Liga" font-size="16" fill="black" x="8.5" y="15">Query Service</tspan>
          <tspan font-family="PragmataPro Mono Liga" font-size="16" fill="black" x="44.5" y="33">OLAP</tspan>
        </text>
      </g>
      <g id="Graphic_15" filter="url(#Shadow)">
        <path d="M 1672 6550.75 L 1779 6550.75 C 1783.4183 6550.75 1787 6554.332 1787 6558.75 L 1787 6594.25 C 1787 6598.668 1783.4183 6602.25 1779 6602.25 L 1672 6602.25 C 1667.5817 6602.25 1664 6598.668 1664 6594.25 L 1664 6558.75 C 1664 6554.332 1667.5817 6550.75 1672 6550.75 Z" fill="#ffc0c0"/>
        <text transform="translate(1665 6558.5)" fill="black">
          <tspan font-family="PragmataPro Mono Liga" font-size="16" fill="black" x="8.5" y="15">Query Service</tspan>
          <tspan font-family="PragmataPro Mono Liga" font-size="16" fill="black" x="28.5" y="33">Archiver</tspan>
        </text>
      </g>
      <g id="Graphic_23" filter="url(#Shadow)">
        <path d="M 1974.5 6861.998 L 1974.5 6806.398 C 1974.5 6802.562 1992.644 6799.448 2015 6799.448 C 2037.356 6799.448 2055.5 6802.562 2055.5 6806.398 L 2055.5 6861.998 C 2055.5 6865.834 2037.356 6868.948 2015 6868.948 C 1992.644 6868.948 1974.5 6865.834 1974.5 6861.998" fill="#c0ffff"/>
        <path d="M 1974.5 6861.998 L 1974.5 6806.398 C 1974.5 6802.562 1992.644 6799.448 2015 6799.448 C 2037.356 6799.448 2055.5 6802.562 2055.5 6806.398 L 2055.5 6861.998 C 2055.5 6865.834 2037.356 6868.948 2015 6868.948 C 1992.644 6868.948 1974.5 6865.834 1974.5 6861.998 M 1974.5 6806.398 C 1974.5 6810.234 1992.644 6813.348 2015 6813.348 C 2037.356 6813.348 2055.5 6810.234 2055.5 6806.398" stroke="black" stroke-linecap="round" stroke-linejoin="round" stroke-width=".5"/>
        <text transform="translate(1975.5 6819.673)" fill="black">
          <tspan font-family="PragmataPro Mono Liga" font-size="16" fill="black" x="11.5" y="15">History</tspan>
          <tspan font-family="PragmataPro Mono Liga" font-size="16" fill="black" x="31.5" y="33">DB</tspan>
        </text>
      </g>
      <g id="Graphic_3" filter="url(#Shadow)">
        <circle cx="2015" cy="6454.5" r="40.5000647150269" fill="#ffc0ff"/>
        <text transform="translate(1983.6 6445.5)" fill="black">
          <tspan font-family="PragmataPro Mono Liga" font-size="16" fill="black" x="7.4" y="15">Leader</tspan>
        </text>
      </g>
      <g id="Graphic_123">
        <text transform="translate(2065 6567.5)" fill="black">
          <tspan font-family="PragmataPro Mono Liga" font-size="16" fill="black" x="0" y="15">Follower</tspan>
        </text>
      </g>
      <g id="Graphic_4" filter="url(#Shadow)">
        <circle cx="1934" cy="6576.5" r="40.500064715027" fill="#c0ffc0"/>
      </g>
      <g id="Graphic_122">
        <text transform="translate(1902 6567.5)" fill="black">
          <tspan font-family="PragmataPro Mono Liga" font-size="16" fill="black" x="0" y="15">Follower</tspan>
        </text>
      </g>
    </g>
  </g>
</svg>
