<svg width="500" height="400" viewBox="0 0 500 400" fill="none" xmlns="http://www.w3.org/2000/svg">
<g clip-path="url(#clip0_106_74)">
<path d="M278.907 4.03433C276.52 5.6003 274.078 1.87315 276.51 0.376711C278.897 -1.18918 281.339 2.53798 278.907 4.03433Z" fill="#E6E6E6"/>
<path d="M428 367.068V395.886C427.999 396.977 427.543 398.023 426.733 398.794C425.922 399.565 424.823 399.999 423.677 400H80.3228C79.1771 399.998 78.079 399.563 77.2689 398.793C76.4587 398.022 76.0025 396.977 76 395.886V359.382C76.4076 358.971 76.8152 358.565 77.2351 358.16C100.043 335.663 127.502 317.907 157.882 306.014C188.261 294.121 220.901 288.347 253.743 289.059C286.585 289.77 318.915 296.95 348.694 310.146C378.474 323.342 405.056 342.267 426.765 365.729C427.185 366.169 427.592 366.622 428 367.068Z" fill="#FFAA2C"/>
<path d="M314.681 38.6024C314.335 38.3955 313.989 38.1947 313.643 38H277.554C277.295 38.4016 277.048 38.8092 276.807 39.2168H315.718C315.372 39.01 315.027 38.8092 314.681 38.6024ZM76 158.744V167.809C76.1544 167.821 76.3149 167.821 76.4693 167.827L76.1605 185.252L76 185.167V186.882L76.1297 186.949L76 194.256V219.444H77.2351V154.637C76.8893 155.951 76.4776 157.32 76 158.744ZM314.681 38.6024C314.335 38.3955 313.989 38.1947 313.643 38H277.554C277.295 38.4016 277.048 38.8092 276.807 39.2168H315.718C315.372 39.01 315.027 38.8092 314.681 38.6024ZM423.677 38H80.3228C79.1767 38.0013 78.0779 38.4504 77.2675 39.2488C76.4571 40.0472 76.0013 41.1297 76 42.2589V395.741C76.0025 396.87 76.4587 397.952 77.2689 398.75C78.079 399.548 79.1771 399.998 80.3228 400H423.677C424.823 399.999 425.922 399.55 426.733 398.751C427.543 397.953 427.999 396.87 428 395.741V42.2589C427.999 41.1297 427.543 40.0472 426.733 39.2488C425.922 38.4503 424.823 38.0013 423.677 38ZM426.765 395.741C426.765 396.548 426.439 397.321 425.86 397.892C425.281 398.462 424.496 398.783 423.677 398.783H80.3228C79.504 398.783 78.7188 398.462 78.1398 397.892C77.5608 397.321 77.2354 396.548 77.2351 395.741V42.2589C77.2364 41.4525 77.5622 40.6795 78.1409 40.1093C78.7197 39.5391 79.5043 39.2182 80.3228 39.2168H423.677C424.496 39.2182 425.28 39.5391 425.859 40.1093C426.438 40.6795 426.764 41.4525 426.765 42.2589V395.741Z" fill="#3F3D56"/>
<path d="M218.151 357.588L205.896 357.926C204.034 358.022 202.193 357.506 200.652 356.456C199.321 355.466 198.711 354.128 198.979 352.784L201.39 340.665C201.845 338.379 204.646 336.65 208.051 336.556L214.819 336.369C218.224 336.275 221.117 337.846 221.697 340.104L224.773 352.072C225.115 353.399 224.579 354.769 223.305 355.831C221.825 356.964 220.014 357.581 218.151 357.588Z" fill="#3F3D56"/>
<path d="M292.691 357.241L280.436 357.58C278.574 357.676 276.733 357.159 275.192 356.11C273.862 355.12 273.251 353.782 273.519 352.438L275.93 340.319C276.385 338.032 279.186 336.304 282.591 336.21L289.359 336.023C292.764 335.929 295.657 337.5 296.237 339.758L299.314 351.726C299.655 353.053 299.119 354.423 297.845 355.484C296.365 356.617 294.555 357.234 292.691 357.241Z" fill="#3F3D56"/>
<path d="M175.597 254.355C175.037 254.113 174.577 253.688 174.291 253.15C174.006 252.611 173.913 251.991 174.028 251.392C174.143 250.793 174.459 250.252 174.923 249.857C175.388 249.462 175.973 249.238 176.583 249.221L315.904 245.374C316.255 245.364 316.605 245.424 316.933 245.549C317.262 245.675 317.562 245.864 317.817 246.105C318.073 246.346 318.278 246.636 318.421 246.957C318.565 247.277 318.644 247.623 318.653 247.974C318.672 248.684 318.409 249.372 317.921 249.887C317.433 250.402 316.761 250.703 316.052 250.723L176.731 254.57C176.342 254.582 175.955 254.509 175.597 254.355Z" fill="#3F3D56"/>
<path d="M227.014 208.233L187.19 209.332L190.902 343.791L230.727 342.691L227.014 208.233Z" fill="#E6E6E6"/>
<path d="M228.024 205.817L220.369 226.671L220.376 321.682L229.704 324.357L228.024 205.817Z" fill="#CCCCCC"/>
<path d="M206.894 173.093C199.444 173.305 193.759 186.199 193.896 191.231L194.147 200.34L221.125 199.595L220.874 190.486C220.732 185.454 214.345 172.894 206.894 173.093Z" fill="#3F3D56"/>
<path d="M187.706 265.015C186.314 265.052 184.964 264.535 183.953 263.578C182.941 262.621 182.351 261.301 182.311 259.909L181.901 245.085C181.863 243.692 182.379 242.342 183.337 241.33C184.294 240.318 185.614 239.728 187.007 239.69C188.399 239.651 189.75 240.167 190.762 241.125C191.774 242.082 192.364 243.403 192.402 244.795L192.811 259.619C192.848 261.011 192.331 262.361 191.374 263.373C190.417 264.384 189.098 264.975 187.706 265.015Z" fill="#3F3D56"/>
<path d="M197.812 209.651L197.624 199.854L200.193 199.79L200.382 209.556L202.711 351.892L200.141 351.963" fill="#3F3D56"/>
<path d="M231.581 232.562L185.398 233.837C180.987 228.458 180.586 205.541 189.792 201.179L193.402 195.049L221.235 193.69L224.488 200.145C229.067 204.041 231.428 226.815 231.581 232.562Z" fill="#E6E6E6"/>
<path d="M214.198 221.57L202.519 221.893C200.266 221.955 198.35 219.031 198.249 215.376C198.148 211.721 199.9 208.696 202.153 208.634L213.832 208.311C216.086 208.249 218.002 211.173 218.103 214.828C218.204 218.483 216.452 221.508 214.198 221.57Z" fill="#FFAA2C"/>
<path d="M191.582 287.685L167.509 304.69L163.303 343.032L191.386 333.649L191.582 287.685Z" fill="#E6E6E6"/>
<path d="M303.89 206.586L264.065 207.686L267.778 342.144L307.603 341.044L303.89 206.586Z" fill="#E6E6E6"/>
<path d="M265.019 206.266L273.214 226.915L275.672 321.894L266.416 324.81L265.019 206.266Z" fill="#CCCCCC"/>
<path d="M323.806 169.256C326.689 169.256 329.026 166.122 329.026 162.256C329.026 158.391 326.689 155.257 323.806 155.257C320.923 155.257 318.586 158.391 318.586 162.256C318.586 166.122 320.923 169.256 323.806 169.256Z" fill="#E6E6E6"/>
<path d="M351.093 272.016C353.976 272.016 356.313 268.882 356.313 265.017C356.313 261.151 353.976 258.017 351.093 258.017C348.21 258.017 345.873 261.151 345.873 265.017C345.873 268.882 348.21 272.016 351.093 272.016Z" fill="#E6E6E6"/>
<path d="M147.975 252.373C150.857 252.373 153.194 249.239 153.194 245.373C153.194 241.507 150.857 238.374 147.975 238.374C145.092 238.374 142.755 241.507 142.755 245.373C142.755 249.239 145.092 252.373 147.975 252.373Z" fill="#E6E6E6"/>
<path d="M282.993 171.468C275.542 171.68 269.858 184.574 269.994 189.605L270.246 198.715L297.224 197.97L296.972 188.86C296.831 183.829 290.444 171.268 282.993 171.468Z" fill="#3F3D56"/>
<path d="M290.707 212.718L290.518 202.921L293.088 202.856L293.276 212.623L295.605 354.958L293.035 355.029" fill="#3F3D56"/>
<path d="M307.679 230.936L261.497 232.212C260.691 227.344 261.733 204.632 265.891 199.554L269.501 193.424L297.334 192.065L300.586 198.519C308.804 199.189 311.678 221.508 307.679 230.936Z" fill="#E6E6E6"/>
<path d="M290.353 221.991L278.675 222.313C276.421 222.376 274.492 218.993 274.376 214.774C274.259 210.554 275.998 207.07 278.252 207.008L289.931 206.686C292.184 206.623 294.113 210.006 294.23 214.225C294.346 218.445 292.607 221.929 290.353 221.991Z" fill="#FFAA2C"/>
<path d="M305.858 277.856L329.131 295.941L331.581 334.436L303.956 323.781L305.858 277.856Z" fill="#E6E6E6"/>
<path d="M299.359 99.56C274.387 99.56 245.688 71.8485 220.296 85.015C143.417 124.879 154 58.1725 131.913 33.3636L132.639 31.9092C149.359 95.69 164.488 197.322 220.63 83.3232C234.693 54.7667 280.85 98.9072 308.018 97.605L308.066 99.3532C305.196 99.4916 302.294 99.5605 299.359 99.56Z" fill="#F2F2F2"/>
<path d="M359.295 103.481C339.388 118.559 299.779 113.795 287.488 139.622C250.271 217.817 218.432 158.251 185.847 151.809L185.547 150.212C218.167 152.918 253.157 148.72 286.732 138.072C317.075 128.45 344.146 114.136 365.018 96.6945L366.111 98.0596C363.908 99.9023 361.636 101.71 359.295 103.481Z" fill="#F2F2F2"/>
<path d="M142.755 100.048C145.638 100.048 147.975 96.9146 147.975 93.0489C147.975 89.1832 145.638 86.0494 142.755 86.0494C139.872 86.0494 137.535 89.1832 137.535 93.0489C137.535 96.9146 139.872 100.048 142.755 100.048Z" fill="#E6E6E6"/>
<path d="M304.65 43.1995C307.533 43.1995 309.87 40.0658 309.87 36.2001C309.87 32.3343 307.533 29.2006 304.65 29.2006C301.768 29.2006 299.431 32.3343 299.431 36.2001C299.431 40.0658 301.768 43.1995 304.65 43.1995Z" fill="#E6E6E6"/>
<path d="M137.535 189.909C140.418 189.909 142.755 186.775 142.755 182.909C142.755 179.044 140.418 175.91 137.535 175.91C134.652 175.91 132.315 179.044 132.315 182.909C132.315 186.775 134.652 189.909 137.535 189.909Z" fill="#E6E6E6"/>
<path d="M190.544 128.299C188.158 129.889 185.715 126.104 188.147 124.585C190.534 122.995 192.976 126.779 190.544 128.299Z" fill="#E6E6E6"/>
<path d="M330.984 77.7352L329.466 77.4022L329.799 75.8833L328.786 75.6615L328.453 77.1804L326.935 76.8479L326.713 77.8601L328.231 78.1931L327.899 79.7114L328.911 79.9332L329.244 78.4143L330.762 78.7474L330.984 77.7352Z" fill="#E6E6E6"/>
<path d="M191.82 26.8423C195.472 26.8423 198.433 23.8814 198.433 20.2291C198.433 16.5767 195.472 13.6158 191.82 13.6158C188.167 13.6158 185.206 16.5767 185.206 20.2291C185.206 23.8814 188.167 26.8423 191.82 26.8423Z" fill="#FF6584"/>
<path d="M240.191 11.8582C232.74 12.0698 227.056 24.9638 227.193 29.9954L227.444 39.1045L254.422 38.3596L254.17 29.2504C254.029 24.2189 247.642 11.6583 240.191 11.8582Z" fill="#3F3D56"/>
<path d="M256.255 356.794L244 357.132C242.139 357.228 240.297 356.712 238.757 355.662C237.426 354.672 236.815 353.334 237.083 351.99L239.495 339.871C239.949 337.585 242.751 335.856 246.156 335.762L252.924 335.575C256.329 335.481 259.221 337.053 259.801 339.31L262.878 351.278C263.219 352.605 262.684 353.975 261.409 355.037C259.929 356.17 258.119 356.787 256.255 356.794Z" fill="#3F3D56"/>
<path d="M261.72 69.8474L221.895 70.9471L229.4 342.739L269.225 341.639L261.72 69.8474Z" fill="#E6E6E6"/>
<path d="M245.785 201.411L245.596 191.614L248.166 191.55L248.354 201.316L250.683 343.652L248.113 343.723" fill="#3F3D56"/>
<path d="M269.561 94.7222L215.6 96.2123C214.659 90.5253 215.876 63.9877 220.734 58.0542L222.065 50.9716L259.324 49.9427L261.273 56.8456C266.623 61.3984 269.382 88.008 269.561 94.7222Z" fill="#E6E6E6"/>
<path d="M260.501 50.7785L222.053 51.8402C220.634 51.8793 219.462 51.1343 219.435 50.1759C219.432 50.0379 219.452 49.9002 219.495 49.769L225.467 31.3703C225.723 30.5824 226.741 30.0038 227.929 29.971L253.427 29.267C254.615 29.2342 255.664 29.7557 255.963 30.5282L262.941 48.5694C263.298 49.4921 262.474 50.4523 261.1 50.7141C260.902 50.7515 260.702 50.7731 260.501 50.7785Z" fill="#E6E6E6"/>
<path d="M225.846 200.161C225.498 200.013 225.17 199.823 224.869 199.596C224.436 199.292 224.079 198.894 223.824 198.431C223.569 197.968 223.424 197.453 223.399 196.926L222.002 146.332C221.944 144.237 223.995 142.475 226.573 142.404L260.993 141.453C263.572 141.382 265.716 143.028 265.774 145.123L267.171 195.717C267.175 196.245 267.058 196.768 266.829 197.244C266.6 197.72 266.266 198.137 265.85 198.464C264.931 199.213 263.785 199.629 262.599 199.644L228.18 200.595C227.379 200.621 226.583 200.474 225.846 200.161Z" fill="#3F3D56"/>
<path d="M247.876 47.5224L236.197 47.8449C233.944 47.9072 232.038 45.361 231.95 42.1698C231.862 38.9787 233.624 36.3312 235.878 36.2689L247.556 35.9464C249.81 35.8842 251.716 38.4304 251.804 41.6216C251.892 44.8127 250.13 47.4602 247.876 47.5224Z" fill="#FFAA2C"/>
<path d="M304.876 261.731C303.484 261.768 302.135 261.251 301.123 260.294C300.112 259.337 299.521 258.017 299.481 256.625L299.072 241.801C299.034 240.409 299.551 239.059 300.508 238.048C301.466 237.037 302.785 236.448 304.177 236.409C305.569 236.371 306.919 236.886 307.931 237.843C308.943 238.8 309.533 240.119 309.572 241.511L309.982 256.335C310.019 257.727 309.502 259.077 308.545 260.089C307.588 261.1 306.268 261.691 304.876 261.731Z" fill="#3F3D56"/>
<path d="M113.049 303.767C106.718 303.767 102.602 302.194 100.78 299.067C97.1874 292.899 103.204 282.078 118.663 266.903L119.962 268.226C105.602 282.322 99.3586 292.944 102.382 298.134C104.294 301.416 109.987 302.593 118.848 301.535C127.644 300.485 139.302 297.355 153.496 292.232C182.718 281.686 219.381 263.896 256.729 242.141C294.077 220.385 327.636 197.269 351.226 177.052C355.757 173.168 359.869 169.431 363.448 165.947C368.146 161.484 372.48 156.654 376.409 151.501C381.701 144.317 383.487 138.784 381.574 135.501C378.379 130.017 364.959 130.533 343.784 136.955L343.246 135.181C365.965 128.291 379.399 128.085 383.176 134.568C385.522 138.596 383.748 144.663 377.902 152.601C373.913 157.835 369.512 162.742 364.741 167.275C361.135 170.787 356.993 174.55 352.432 178.459C328.76 198.748 295.103 221.933 257.662 243.742C220.22 265.553 183.45 283.393 154.126 293.976C139.799 299.146 128.004 302.309 119.068 303.375C117.071 303.624 115.061 303.755 113.049 303.767Z" fill="#3F3D56"/>
<path d="M261.547 86.0493L284.819 104.135L287.269 142.629L259.645 131.974L261.547 86.0493Z" fill="#E6E6E6"/>
<path d="M226.389 86.0493L203.117 104.135L200.666 142.629L228.291 131.974L226.389 86.0493Z" fill="#E6E6E6"/>
<path d="M239.522 57.9765L239.333 48.1794L241.903 48.1157L242.091 57.882L244.42 76.6334L241.85 76.7045" fill="#3F3D56"/>
<path d="M122.282 135.69C124.687 134.759 126.112 132.648 125.464 130.975C124.817 129.302 122.342 128.701 119.937 129.632C117.532 130.563 116.108 132.674 116.755 134.347C117.403 136.02 119.878 136.621 122.282 135.69Z" fill="#E6E6E6"/>
<path d="M152.563 131.806C154.968 130.875 156.392 128.764 155.745 127.091C155.097 125.418 152.623 124.816 150.218 125.747C147.813 126.678 146.388 128.789 147.036 130.462C147.683 132.135 150.158 132.737 152.563 131.806Z" fill="#E6E6E6"/>
<path d="M119.656 161.524C122.061 160.594 123.486 158.483 122.838 156.81C122.191 155.137 119.716 154.535 117.311 155.466C114.906 156.397 113.482 158.508 114.129 160.181C114.777 161.854 117.251 162.455 119.656 161.524Z" fill="#E6E6E6"/>
<path d="M110.896 172.92C112 172.659 112.59 171.161 112.214 169.575C111.839 167.989 110.64 166.915 109.537 167.177C108.434 167.438 107.844 168.935 108.219 170.521C108.594 172.107 109.793 173.181 110.896 172.92Z" fill="#E6E6E6"/>
<path d="M110.716 192.213C111.82 191.952 112.41 190.455 112.034 188.869C111.659 187.283 110.46 186.209 109.357 186.47C108.254 186.731 107.663 188.228 108.039 189.814C108.414 191.4 109.613 192.474 110.716 192.213Z" fill="#E6E6E6"/>
<path d="M137.293 152.253C138.396 151.991 138.986 150.494 138.611 148.908C138.235 147.322 137.036 146.248 135.933 146.509C134.83 146.77 134.24 148.268 134.615 149.854C134.99 151.44 136.189 152.514 137.293 152.253Z" fill="#E6E6E6"/>
<path d="M121.345 148.38C122.448 148.119 123.038 146.621 122.663 145.035C122.287 143.449 121.089 142.375 119.985 142.636C118.882 142.898 118.292 144.395 118.667 145.981C119.043 147.567 120.241 148.641 121.345 148.38Z" fill="#E6E6E6"/>
<path d="M138.248 130.614C139.352 130.353 139.942 128.856 139.566 127.27C139.191 125.684 137.992 124.61 136.889 124.871C135.786 125.132 135.195 126.629 135.571 128.215C135.946 129.801 137.145 130.875 138.248 130.614Z" fill="#E6E6E6"/>
<path d="M387.042 222.85C389.534 222.186 391.18 220.243 390.718 218.509C390.256 216.775 387.862 215.908 385.37 216.572C382.878 217.235 381.232 219.179 381.694 220.912C382.156 222.646 384.55 223.513 387.042 222.85Z" fill="#E6E6E6"/>
<path d="M356.519 223.415C359.011 222.751 360.657 220.808 360.195 219.074C359.733 217.341 357.339 216.474 354.847 217.137C352.355 217.801 350.709 219.744 351.171 221.478C351.632 223.211 354.027 224.079 356.519 223.415Z" fill="#E6E6E6"/>
<path d="M392.464 197.455C394.956 196.791 396.602 194.848 396.141 193.114C395.679 191.381 393.284 190.513 390.792 191.177C388.3 191.841 386.655 193.784 387.116 195.517C387.578 197.251 389.972 198.118 392.464 197.455Z" fill="#E6E6E6"/>
<path d="M401.467 186.66C402.592 186.52 403.342 185.096 403.141 183.479C402.941 181.861 401.866 180.663 400.741 180.802C399.615 180.942 398.866 182.366 399.066 183.984C399.267 185.601 400.342 186.799 401.467 186.66Z" fill="#E6E6E6"/>
<path d="M403.746 167.501C404.871 167.361 405.621 165.937 405.42 164.32C405.22 162.702 404.145 161.504 403.02 161.644C401.895 161.783 401.145 163.207 401.345 164.825C401.546 166.442 402.621 167.64 403.746 167.501Z" fill="#E6E6E6"/>
<path d="M372.978 204.331C374.103 204.192 374.853 202.768 374.652 201.15C374.452 199.533 373.377 198.335 372.252 198.474C371.127 198.614 370.377 200.038 370.578 201.655C370.778 203.273 371.853 204.471 372.978 204.331Z" fill="#E6E6E6"/>
<path d="M388.41 209.917C389.535 209.777 390.285 208.353 390.084 206.736C389.883 205.118 388.809 203.92 387.684 204.06C386.558 204.199 385.809 205.623 386.009 207.241C386.21 208.858 387.285 210.056 388.41 209.917Z" fill="#E6E6E6"/>
<path d="M369.673 225.737C370.798 225.598 371.548 224.173 371.347 222.556C371.147 220.939 370.072 219.74 368.947 219.88C367.821 220.019 367.072 221.444 367.272 223.061C367.473 224.679 368.548 225.877 369.673 225.737Z" fill="#E6E6E6"/>
<path d="M444.07 323.32C436.092 323.32 427.347 323.018 417.835 322.415C368.64 319.291 304.918 308.43 238.406 291.833C171.894 275.236 110.539 254.885 65.6437 234.53C43.7739 224.615 26.9889 215.229 15.7556 206.633C3.86237 197.533 -1.33988 189.6 0.292723 183.057C3.47378 170.31 31.6405 167.521 54.7094 167.427L54.7173 169.28C23.0376 169.41 4.34817 174.463 2.0916 183.506C-0.782877 195.024 22.6601 213.006 66.4092 232.842C111.206 253.152 172.448 273.464 238.855 290.035C305.261 306.605 368.866 317.448 417.953 320.565C465.891 323.61 495.035 318.75 497.909 307.231C500.295 297.668 484.563 283.58 453.61 267.562L454.462 265.916C476.953 277.555 503.059 294.248 499.708 307.68C498.075 314.223 489.756 318.781 474.981 321.227C466.559 322.621 456.215 323.32 444.07 323.32Z" fill="#FFAA2C"/>
</g>
<defs>
<clipPath id="clip0_106_74">
<rect width="500" height="400" fill="white"/>
</clipPath>
</defs>
</svg>
