<svg width="500" height="400" viewBox="0 0 500 400" fill="none" xmlns="http://www.w3.org/2000/svg">
<g clip-path="url(#clip0_106_27)">
<path d="M442.443 24.7358H94.4517C92.737 24.7359 91.0924 25.4138 89.8792 26.6205C88.666 27.8273 87.9833 29.4642 87.9811 31.1719V194.764C87.983 196.472 88.6654 198.11 89.8784 199.318C91.0915 200.526 92.7361 201.206 94.4517 201.208H442.443C444.157 201.204 445.8 200.524 447.012 199.316C448.223 198.108 448.904 196.471 448.906 194.764V31.1719C448.904 29.4655 448.223 27.8294 447.011 26.6228C445.799 25.4162 444.157 24.7376 442.443 24.7358Z" fill="#3F3D56"/>
<path d="M350.824 102.774C349.084 102.777 347.417 104.07 346.187 106.37C344.958 108.67 344.266 111.788 344.264 115.04V203.114C344.266 206.368 344.957 209.488 346.187 211.79C347.416 214.093 349.084 215.389 350.824 215.396H450.679V102.774H350.824Z" fill="#FFAA2C"/>
<path opacity="0.5" d="M477.639 215.396H347.456C346.61 215.392 345.798 214.098 345.2 211.796C344.602 209.495 344.265 206.375 344.264 203.12V115.05C344.265 111.795 344.602 108.674 345.2 106.373C345.798 104.072 346.61 102.777 347.456 102.774H477.639C478.485 102.777 479.296 104.072 479.894 106.373C480.493 108.674 480.829 111.795 480.83 115.05V203.12C480.829 206.375 480.493 209.495 479.894 211.796C479.296 214.098 478.485 215.392 477.639 215.396Z" fill="#FFAA2C"/>
<path d="M470.387 130.264C465.914 130.264 461.542 128.964 457.824 126.528C454.105 124.092 451.206 120.629 449.495 116.578C447.783 112.527 447.336 108.07 448.208 103.769C449.081 99.4687 451.234 95.5184 454.397 92.4179C457.559 89.3174 461.589 87.206 465.975 86.3506C470.362 85.4951 474.908 85.9342 479.04 87.6121C483.173 89.2901 486.704 92.1317 489.189 95.7775C491.674 99.4233 493 103.71 493 108.094C493 113.974 490.618 119.613 486.377 123.771C482.136 127.928 476.384 130.264 470.387 130.264Z" fill="#FFAA2C"/>
<path d="M478.457 105.434H472.073V98.783C472.073 98.1951 471.849 97.6311 471.45 97.2154C471.051 96.7996 470.51 96.566 469.946 96.566C469.381 96.566 468.84 96.7996 468.441 97.2154C468.042 97.6311 467.818 98.1951 467.818 98.783V105.434H461.434C461.154 105.433 460.877 105.49 460.618 105.602C460.36 105.713 460.125 105.876 459.927 106.082C459.729 106.288 459.571 106.532 459.464 106.802C459.357 107.071 459.302 107.359 459.302 107.651C459.302 107.942 459.357 108.231 459.464 108.5C459.571 108.77 459.729 109.014 459.927 109.22C460.125 109.426 460.36 109.589 460.618 109.7C460.877 109.812 461.154 109.868 461.434 109.868H467.818V116.519C467.818 117.107 468.042 117.671 468.441 118.087C468.84 118.502 469.381 118.736 469.946 118.736C470.51 118.736 471.051 118.502 471.45 118.087C471.849 117.671 472.073 117.107 472.073 116.519V109.868H478.457C479.021 109.868 479.563 109.634 479.962 109.219C480.361 108.803 480.585 108.239 480.585 107.651C480.585 107.063 480.361 106.499 479.962 106.083C479.563 105.668 479.021 105.434 478.457 105.434Z" fill="white"/>
<path d="M275.639 162.189H190.312C188.574 162.191 186.907 162.883 185.677 164.115C184.448 165.347 183.757 167.017 183.755 168.758V201.208H282.189V168.758C282.187 167.018 281.497 165.349 280.269 164.117C279.042 162.886 277.377 162.192 275.639 162.189Z" fill="#FFAA2C"/>
<path opacity="0.5" d="M275.634 252.642H190.309C188.571 252.64 186.905 251.953 185.677 250.731C184.448 249.51 183.757 247.854 183.755 246.127V168.703C183.757 166.976 184.448 165.32 185.677 164.099C186.905 162.878 188.571 162.191 190.309 162.189H275.634C277.372 162.191 279.038 162.878 280.267 164.099C281.495 165.32 282.187 166.976 282.189 168.703V246.127C282.187 247.854 281.495 249.51 280.267 250.731C279.038 251.953 277.372 252.64 275.634 252.642Z" fill="#FFAA2C"/>
<path d="M189.519 274.811C185.046 274.811 180.674 273.537 176.956 271.15C173.237 268.762 170.339 265.369 168.627 261.399C166.915 257.429 166.468 253.061 167.34 248.846C168.213 244.632 170.366 240.761 173.529 237.722C176.691 234.684 180.721 232.614 185.107 231.776C189.494 230.938 194.041 231.368 198.173 233.012C202.305 234.657 205.836 237.442 208.321 241.014C210.806 244.587 212.132 248.788 212.132 253.085C212.132 258.847 209.75 264.373 205.509 268.448C201.268 272.522 195.516 274.811 189.519 274.811Z" fill="#FFAA2C"/>
<path d="M199.274 250.868H192.624V244.217C192.624 243.629 192.391 243.065 191.975 242.649C191.559 242.234 190.996 242 190.408 242C189.82 242 189.256 242.234 188.84 242.649C188.425 243.065 188.191 243.629 188.191 244.217V250.868H181.542C181.25 250.867 180.961 250.924 180.692 251.035C180.423 251.147 180.178 251.31 179.971 251.516C179.765 251.722 179.602 251.966 179.49 252.236C179.378 252.505 179.321 252.793 179.321 253.085C179.321 253.376 179.378 253.665 179.49 253.934C179.602 254.204 179.765 254.448 179.971 254.654C180.178 254.86 180.423 255.023 180.692 255.134C180.961 255.245 181.25 255.302 181.542 255.302H188.191V261.953C188.191 262.541 188.425 263.105 188.84 263.52C189.256 263.936 189.82 264.17 190.408 264.17C190.996 264.17 191.559 263.936 191.975 263.52C192.391 263.105 192.624 262.541 192.624 261.953V255.302H199.274C199.862 255.302 200.426 255.068 200.841 254.653C201.257 254.237 201.491 253.673 201.491 253.085C201.491 252.497 201.257 251.933 200.841 251.517C200.426 251.102 199.862 250.868 199.274 250.868Z" fill="white"/>
<path d="M178.205 115.189H94.4173C92.7109 115.187 91.075 114.5 89.8684 113.278C88.6618 112.057 87.9831 110.401 87.9811 108.674V31.2501C87.9831 29.523 88.6618 27.8672 89.8684 26.6459C91.075 25.4247 92.711 24.7378 94.4173 24.7358H178.205C179.912 24.7378 181.548 25.4247 182.754 26.6459C183.961 27.8672 184.64 29.523 184.642 31.2501V108.674C184.64 110.401 183.961 112.057 182.754 113.278C181.548 114.5 179.912 115.187 178.205 115.189Z" fill="#FFAA2C"/>
<path d="M119.019 67.3019C124.406 67.3019 128.774 62.339 128.774 56.217C128.774 50.095 124.406 45.1321 119.019 45.1321C113.631 45.1321 109.264 50.095 109.264 56.217C109.264 62.339 113.631 67.3019 119.019 67.3019Z" fill="#FFAA2C"/>
<path d="M161.99 79.7169H112.406C111.573 79.7169 110.774 79.3899 110.184 78.8079C109.595 78.2258 109.264 77.4364 109.264 76.6132C109.264 75.79 109.595 75.0005 110.184 74.4185C110.774 73.8364 111.573 73.5094 112.406 73.5094H161.99C162.824 73.5094 163.623 73.8364 164.212 74.4185C164.801 75.0005 165.132 75.79 165.132 76.6132C165.132 77.4364 164.801 78.2258 164.212 78.8079C163.623 79.3899 162.824 79.7169 161.99 79.7169Z" fill="#FFAA2C"/>
<path d="M136.279 92.1321H112.4C111.568 92.1321 110.771 91.8051 110.183 91.223C109.595 90.641 109.264 89.8515 109.264 89.0283C109.264 88.2052 109.595 87.4157 110.183 86.8336C110.771 86.2516 111.568 85.9246 112.4 85.9246H136.279C137.111 85.9246 137.909 86.2516 138.497 86.8336C139.085 87.4157 139.415 88.2052 139.415 89.0283C139.415 89.8515 139.085 90.641 138.497 91.223C137.909 91.8051 137.111 92.1321 136.279 92.1321Z" fill="#FFAA2C"/>
<path opacity="0.5" d="M178.205 115.189H94.4173C92.7109 115.187 91.075 114.5 89.8684 113.278C88.6618 112.057 87.9831 110.401 87.9811 108.674V31.2501C87.9831 29.523 88.6618 27.8672 89.8684 26.6459C91.075 25.4247 92.711 24.7378 94.4173 24.7358H178.205C179.912 24.7378 181.548 25.4247 182.754 26.6459C183.961 27.8672 184.64 29.523 184.642 31.2501V108.674C184.64 110.401 183.961 112.057 182.754 113.278C181.548 114.5 179.912 115.187 178.205 115.189Z" fill="#FFAA2C"/>
<path d="M96.8491 39.8113C106.155 39.8113 113.698 32.4663 113.698 23.4057C113.698 14.3451 106.155 7 96.8491 7C87.5436 7 80 14.3451 80 23.4057C80 32.4663 87.5436 39.8113 96.8491 39.8113Z" fill="#FF6584"/>
<path d="M232.55 202.308C237.882 202.308 242.204 197.985 242.204 192.654C242.204 187.322 237.882 183 232.55 183C227.219 183 222.896 187.322 222.896 192.654C222.896 197.985 227.219 202.308 232.55 202.308Z" fill="white"/>
<path d="M232.551 207.135C222.877 207.135 215 213.622 215 221.615C215 222.156 215.425 222.581 215.965 222.581H249.136C249.676 222.581 250.101 222.156 250.101 221.615C250.101 213.622 242.224 207.135 232.551 207.135Z" fill="white"/>
<path d="M407.786 155.121C407.786 156.482 408.164 156.683 409.021 156.986L410.306 157.439V153.156H409.55C408.592 153.156 407.786 154.038 407.786 155.121Z" fill="white"/>
<path d="M414.085 167.015H414.841C415.823 167.015 416.604 166.134 416.604 165.05C416.604 163.69 416.226 163.488 415.37 163.186L414.085 162.732V167.015Z" fill="white"/>
<path d="M431.293 143.658L426.128 148.823C425.75 149.201 425.271 149.377 424.793 149.377C424.314 149.377 423.835 149.201 423.457 148.823C422.727 148.092 422.727 146.883 423.457 146.152L428.622 140.987C424.188 137.208 418.469 134.89 412.195 134.89C398.287 134.89 387 146.177 387 160.085C387 173.993 398.287 185.28 412.195 185.28C426.103 185.28 437.39 173.993 437.39 160.085C437.39 153.811 435.072 148.092 431.293 143.658ZM416.604 159.631C418.217 160.211 420.384 161.37 420.384 165.073C420.384 168.223 417.889 170.818 414.841 170.818H414.085V171.448C414.085 172.481 413.228 173.337 412.195 173.337C411.162 173.337 410.306 172.481 410.306 171.448V170.818H410.104C406.753 170.818 404.007 167.996 404.007 164.519C404.007 163.461 404.863 162.604 405.896 162.604C406.929 162.604 407.786 163.461 407.786 164.494C407.786 165.88 408.819 167.014 410.104 167.014H410.306V161.42L407.786 160.538C406.174 159.959 404.007 158.8 404.007 155.096C404.007 151.947 406.501 149.352 409.55 149.352H410.306V148.747C410.306 147.714 411.162 146.857 412.195 146.857C413.228 146.857 414.085 147.714 414.085 148.747V149.377H414.286C417.637 149.377 420.384 152.199 420.384 155.676C420.384 156.709 419.527 157.565 418.494 157.565C417.461 157.565 416.604 156.709 416.604 155.676C416.604 154.29 415.571 153.156 414.286 153.156H414.085V158.749L416.604 159.631Z" fill="white"/>
<path d="M439.129 134.159C438.927 133.705 438.575 133.328 438.096 133.126C437.869 133.05 437.642 133 437.39 133H427.312C426.279 133 425.423 133.857 425.423 134.89C425.423 135.923 426.279 136.779 427.312 136.779H432.83L428.622 140.987C429.58 141.818 430.462 142.7 431.293 143.658L435.501 139.45V144.968C435.501 146.001 436.357 146.857 437.39 146.857C438.423 146.857 439.28 146.001 439.28 144.968V134.89C439.28 134.638 439.23 134.411 439.129 134.159Z" fill="white"/>
<path d="M145.933 58.071C149.939 60.8548 152.703 65.2807 153.263 70.3875M118.957 70.4876C119.478 65.4007 122.201 60.9747 126.167 58.1709M128.37 87.6506C130.693 88.8322 133.336 89.4931 136.12 89.4931C138.804 89.4931 141.327 88.8923 143.59 87.7908M136.12 61.135C139.195 61.135 141.688 58.6424 141.688 55.5675C141.688 52.4927 139.195 50 136.12 50C133.045 50 130.553 52.4927 130.553 55.5675C130.553 58.6424 133.045 61.135 136.12 61.135ZM121.641 85.6081C124.715 85.6081 127.208 83.1153 127.208 80.0406C127.208 76.9656 124.715 74.4731 121.641 74.4731C118.566 74.4731 116.073 76.9656 116.073 80.0406C116.073 83.1153 118.566 85.6081 121.641 85.6081ZM150.359 85.6081C153.434 85.6081 155.927 83.1153 155.927 80.0406C155.927 76.9656 153.434 74.4731 150.359 74.4731C147.285 74.4731 144.792 76.9656 144.792 80.0406C144.792 83.1153 147.285 85.6081 150.359 85.6081Z" stroke="white" stroke-width="3" stroke-linecap="round" stroke-linejoin="round"/>
<path d="M138.287 362.38L138.967 347.626C146.056 343.97 153.962 342.039 162 342C150.938 350.727 152.32 367.55 144.82 379.286C142.452 382.929 139.265 386.011 135.494 388.304C131.724 390.597 127.467 392.041 123.039 392.531L113.782 398C112.512 391.167 112.792 384.149 114.603 377.43C116.414 370.712 119.713 364.452 124.273 359.082C126.862 356.094 129.83 353.432 133.108 351.16C135.325 356.801 138.287 362.38 138.287 362.38Z" fill="#FFAA2C"/>
<path d="M95.0012 391L101.777 390.999L105 362H95L95.0012 391Z" fill="#FFB6B6"/>
<path d="M93 388.334L95.0077 388.334L102.846 385L107.047 388.333C109.422 388.333 111.699 389.32 113.378 391.075C115.057 392.831 116 395.212 116 397.695V397.999L93.0004 398L93 388.334Z" fill="#2F2E41"/>
<path d="M27 381.567L33.4743 385L49 360.067L39.4454 355L27 381.567Z" fill="#FFB6B6"/>
<path d="M25.5696 378L27.5611 378.967L36.9124 379.661L39.5039 384.762C41.8588 385.905 43.6516 387.913 44.4869 390.343C45.3221 392.772 45.132 395.426 43.9583 397.719L43.8145 398L21 386.928L25.5696 378Z" fill="#2F2E41"/>
<path d="M98.8201 259L50.8526 260.254L51.6868 283.666C51.6868 283.666 50.8526 289.937 52.521 291.609C54.1894 293.281 55.0237 293.281 54.1894 296.208C53.3552 299.134 51.1985 327.095 51.1985 327.095C51.1985 327.095 31.5113 361.986 32.3455 362.822C33.1798 363.658 34.014 362.822 33.1798 364.912C32.3455 367.002 31.5113 366.166 32.3455 367.002C33.0845 367.801 33.7807 368.638 34.4311 369.511H48.0273C48.0273 369.511 48.7876 365.33 48.7876 364.912C48.7876 364.494 49.6219 361.986 49.6219 361.568C49.6219 361.149 73.3764 335.924 73.3764 335.924L78.3817 294.117L90.4779 335.088C90.4779 335.088 90.4779 371.041 91.3121 371.877C92.1463 372.714 92.1463 372.295 91.7292 373.968C91.3121 375.64 89.6436 375.222 90.895 376.476C92.1463 377.73 92.5634 375.64 92.1463 377.73L91.7292 379.821L107.754 380C107.754 380 109.423 376.476 108.588 375.222C107.754 373.968 107.804 374.31 108.822 372.258C109.84 370.205 110.257 369.787 109.84 369.369C109.423 368.951 109.423 366.727 109.423 366.727C109.423 366.727 103.408 284.502 103.408 283.248C103.377 282.602 103.495 281.959 103.755 281.367V279.665L102.157 273.632L98.8201 259Z" fill="#2F2E41"/>
<path d="M159 397.5C159 397.566 158.983 397.631 158.949 397.692C158.915 397.752 158.865 397.808 158.802 397.854C158.739 397.9 158.664 397.937 158.582 397.962C158.5 397.987 158.411 398 158.322 398H-1.32221C-1.50197 398 -1.67437 397.947 -1.80148 397.854C-1.92859 397.76 -2 397.633 -2 397.5C-2 397.367 -1.92859 397.24 -1.80148 397.146C-1.67437 397.053 -1.50197 397 -1.32221 397H158.322C158.411 397 158.5 397.013 158.582 397.038C158.664 397.063 158.739 397.1 158.802 397.146C158.865 397.192 158.915 397.248 158.949 397.308C158.983 397.369 159 397.434 159 397.5Z" fill="#CCCCCC"/>
<path d="M140.634 142.204C141.188 143.791 141.111 145.537 140.42 147.067C139.73 148.596 138.481 149.786 136.943 150.379C136.603 150.509 136.252 150.609 135.895 150.675L132.339 173L124 165.103L128.654 145.114C128.482 143.43 128.963 141.743 129.994 140.42C131.024 139.096 132.521 138.242 134.16 138.041C135.54 137.879 136.932 138.202 138.109 138.959C139.285 139.716 140.176 140.86 140.634 142.204Z" fill="#FFB6B6"/>
<path d="M77 193.282C77 193.282 83.6994 184.482 108.01 184.723L121.809 179.739L124.963 151L136 153.613L134.423 189.144L110.771 202.73L79.7614 209L77 193.282Z" fill="#3F3D56"/>
<path d="M73 176C80.732 176 87 169.284 87 161C87 152.716 80.732 146 73 146C65.268 146 59 152.716 59 161C59 169.284 65.268 176 73 176Z" fill="#FFB6B6"/>
<path d="M49.0435 270C49.0182 270 48.993 269.997 48.9687 269.99C48.7055 269.916 48.4976 269.858 49.4474 261.646L50.4725 255.155L49.4717 249.423L47.7885 247.74L50.4938 245.035L52.764 238.586L48.8359 232.766L44.3291 208.961C43.5543 204.854 44.1564 200.606 46.042 196.875C47.9276 193.145 50.9913 190.141 54.7581 188.329L59.9742 186.805L61.8721 183.324C62.405 182.347 63.1898 181.53 64.1449 180.958C65.0999 180.386 66.1906 180.08 67.3038 180.072L76.8558 180C77.8195 179.993 78.7718 180.209 79.638 180.632C80.5042 181.054 81.2608 181.671 81.8484 182.435L85.1809 186.767L99 191.462L96.7087 240.832C97.0727 241.136 97.3695 241.513 97.5803 241.939C97.7911 242.364 97.9114 242.828 97.9336 243.302C97.9557 243.776 97.8792 244.25 97.7089 244.693C97.5385 245.136 97.2782 245.539 96.9441 245.876C96.8005 246.021 96.6863 246.139 96.6159 246.217C96.3829 246.548 96.82 249.019 97.3598 251.117L98.052 254.329C97.8299 254.488 97.6431 254.691 97.5034 254.926C97.3637 255.16 97.2742 255.421 97.2405 255.692C97.2067 255.963 97.2295 256.238 97.3074 256.5C97.3853 256.761 97.5166 257.004 97.693 257.212L98.5756 258.255C98.7501 259.562 98.399 260.885 97.5994 261.934C96.7998 262.983 95.6169 263.671 94.3101 263.849C81.6807 265.568 49.1095 270 49.0435 270Z" fill="#3F3D56"/>
<path d="M57.8272 146.075C58.5271 145.406 59.4368 145.008 60.3973 144.949C61.3505 144.98 62.3171 145.852 62.1197 146.797C63.8705 143.658 66.6574 141.243 69.991 139.977C73.3246 138.711 76.992 138.674 80.3495 139.874C82.7186 140.721 85.0419 142.414 85.5861 144.898C85.6391 145.55 85.8311 146.183 86.1489 146.753C86.4244 147.057 86.7817 147.274 87.1771 147.375C87.5724 147.477 87.9883 147.459 88.3737 147.324L88.3971 147.317C88.529 147.271 88.6714 147.267 88.8059 147.304C88.9403 147.341 89.0606 147.418 89.1513 147.526C89.2419 147.633 89.2987 147.765 89.3143 147.905C89.3299 148.046 89.3035 148.187 89.2387 148.312L88.5683 149.579C89.4133 149.769 90.2914 149.75 91.1276 149.524C91.2665 149.487 91.4133 149.494 91.5478 149.545C91.6823 149.596 91.798 149.688 91.8789 149.808C91.9599 149.928 92.0021 150.071 91.9999 150.216C91.9977 150.362 91.9511 150.503 91.8666 150.62C90.7525 152.164 89.2981 153.423 87.6191 154.297C85.9401 155.171 84.0827 155.636 82.195 155.655C79.5167 155.639 76.8107 154.704 74.2041 155.328C73.1957 155.569 72.2534 156.036 71.4464 156.694C70.6394 157.352 69.9882 158.185 69.5405 159.132C69.0927 160.078 68.8599 161.114 68.859 162.163C68.8582 163.213 69.0893 164.249 69.5355 165.196C68.7347 164.309 67.1868 164.519 66.3676 165.389C65.9904 165.855 65.7116 166.394 65.5484 166.973C65.3852 167.552 65.3412 168.159 65.419 168.756C65.6375 170.585 66.1736 172.36 67.0026 174C63.8353 173.901 60.7743 172.82 58.2329 170.904C55.6916 168.987 53.7924 166.326 52.7919 163.281C51.7913 160.236 51.7377 156.953 52.6382 153.876C53.5386 150.799 55.3499 148.076 57.8272 146.075Z" fill="#2F2E41"/>
<path d="M54.2072 290.765C52.8712 289.761 51.9674 288.249 51.6907 286.557C51.4139 284.864 51.7864 283.126 52.7279 281.717C52.9367 281.406 53.1715 281.115 53.4296 280.847L44 260L55.2619 261.691L62.4898 281.228C63.5651 282.54 64.1018 284.241 63.984 285.962C63.8662 287.684 63.1033 289.287 61.8602 290.427C60.8106 291.38 59.4813 291.933 58.0906 291.994C56.6999 292.056 55.3304 291.622 54.2072 290.765Z" fill="#FFB6B6"/>
<path d="M51.472 280L36.1534 245.216L36 217.744L40.8288 202.904C41.4839 200.891 42.5318 199.031 43.9106 197.434C45.2894 195.836 46.9712 194.535 48.8564 193.606C50.7416 192.676 52.7921 192.138 54.8866 192.023C56.9812 191.908 59.0773 192.219 61.0511 192.936L61.1574 192.975L61.202 193.08C61.3805 193.501 65.4304 203.622 53.4173 224.443L50.9997 238.69L59.483 271.347L51.472 280Z" fill="#3F3D56"/>
</g>
<defs>
<clipPath id="clip0_106_27">
<rect width="500" height="400" fill="white"/>
</clipPath>
</defs>
</svg>
