<svg width="500" height="400" viewBox="0 0 500 400" fill="none" xmlns="http://www.w3.org/2000/svg">
<g clip-path="url(#clip0_106_2)">
<path d="M373.316 252.055H18.2121C8.16973 252.055 0 243.884 0 233.843V45.212C0 35.1705 8.16973 27 18.2121 27H373.316C383.359 27 391.528 35.1705 391.528 45.212V233.843C391.528 243.884 383.359 252.055 373.316 252.055Z" fill="white"/>
<path d="M373.316 252.055H18.2121C8.16973 252.055 0 243.884 0 233.843V45.212C0 35.1705 8.16973 27 18.2121 27H373.316C383.359 27 391.528 35.1705 391.528 45.212V233.843C391.528 243.884 383.359 252.055 373.316 252.055ZM18.2121 30.0413C9.84704 30.0413 3.04128 36.847 3.04128 45.212V233.843C3.04128 242.208 9.84704 249.014 18.2121 249.014H373.316C381.681 249.014 388.487 242.208 388.487 233.843V45.212C388.487 36.847 381.681 30.0413 373.316 30.0413H18.2121Z" fill="#3F3D56"/>
<path d="M345.909 49.8096C348.429 49.8096 350.471 47.7672 350.471 45.2477C350.471 42.7282 348.429 40.6858 345.909 40.6858C343.39 40.6858 341.347 42.7282 341.347 45.2477C341.347 47.7672 343.39 49.8096 345.909 49.8096Z" fill="#3F3D56"/>
<path d="M358.074 49.8096C360.594 49.8096 362.636 47.7672 362.636 45.2477C362.636 42.7282 360.594 40.6858 358.074 40.6858C355.555 40.6858 353.512 42.7282 353.512 45.2477C353.512 47.7672 355.555 49.8096 358.074 49.8096Z" fill="#3F3D56"/>
<path d="M370.24 49.8096C372.759 49.8096 374.801 47.7672 374.801 45.2477C374.801 42.7282 372.759 40.6858 370.24 40.6858C367.72 40.6858 365.678 42.7282 365.678 45.2477C365.678 47.7672 367.72 49.8096 370.24 49.8096Z" fill="#3F3D56"/>
<path d="M253 118C254.105 118 255 118.895 255 120V122C255 123.105 254.105 124 253 124H25.3378C24.6949 124 24.1105 123.67 23.6897 123.115C23.2571 122.575 23 121.825 23 121C23 119.35 24.052 118 25.3378 118H253Z" fill="#FFAA2C"/>
<path d="M60.4954 107.165H30.0826C26.7287 107.165 24 104.437 24 101.083C24 97.728 26.7287 95 30.0826 95H60.4954C63.8493 95 66.578 97.728 66.578 101.083C66.578 104.437 63.8493 107.165 60.4954 107.165Z" fill="#E6E6E6"/>
<path d="M164.193 74.9002H28.1319C24.778 74.9002 22.0493 72.1723 22.0493 68.8177C22.0493 65.4631 24.778 62.7351 28.1319 62.7351H164.193C167.546 62.7351 170.275 65.4631 170.275 68.8177C170.275 72.1723 167.546 74.9002 164.193 74.9002Z" fill="#E6E6E6"/>
<path d="M205.531 186.667C206.635 186.667 207.531 187.563 207.531 188.667V190.75C207.531 191.855 206.635 192.75 205.531 192.75H25.8509C25.0146 192.75 24.2542 192.415 23.7068 191.853C23.1441 191.305 22.8096 190.545 22.8096 189.709C22.8096 188.036 24.1782 186.667 25.8509 186.667H205.531Z" fill="#FFAA2C"/>
<path d="M60.4954 175.165H30.0826C26.7287 175.165 24 172.437 24 169.083C24 165.728 26.7287 163 30.0826 163H60.4954C63.8493 163 66.578 165.728 66.578 169.083C66.578 172.437 63.8493 175.165 60.4954 175.165Z" fill="#E6E6E6"/>
<path d="M322.157 115.607L319.573 112.605C319.079 112.035 318.68 110.972 318.68 110.212V106.983C318.68 104.969 317.026 103.317 315.012 103.317H311.782C311.041 103.317 309.958 102.918 309.388 102.424L306.386 99.8405C305.075 98.7198 302.928 98.7198 301.598 99.8405L298.614 102.443C298.044 102.918 296.961 103.317 296.22 103.317H292.933C290.919 103.317 289.266 104.969 289.266 106.983V110.231C289.266 110.972 288.867 112.035 288.392 112.605L285.827 115.626C284.724 116.936 284.724 119.064 285.827 120.374L288.392 123.395C288.867 123.965 289.266 125.028 289.266 125.769V129.017C289.266 131.031 290.919 132.683 292.933 132.683H296.22C296.961 132.683 298.044 133.082 298.614 133.576L301.617 136.159C302.928 137.28 305.075 137.28 306.405 136.159L309.407 133.576C309.977 133.082 311.041 132.683 311.801 132.683H315.031C317.046 132.683 318.699 131.031 318.699 129.017V125.788C318.699 125.047 319.098 123.965 319.592 123.395L322.176 120.393C323.278 119.083 323.278 116.917 322.157 115.607ZM311.896 114.41L302.719 123.585C302.453 123.851 302.092 124.003 301.712 124.003C301.332 124.003 300.971 123.851 300.705 123.585L296.106 118.988C295.555 118.437 295.555 117.525 296.106 116.974C296.657 116.423 297.569 116.423 298.12 116.974L301.712 120.564L309.882 112.396C310.433 111.846 311.345 111.846 311.896 112.396C312.447 112.947 312.447 113.859 311.896 114.41Z" fill="#FFAA2C"/>
<path d="M322.157 187.607L319.573 184.605C319.079 184.035 318.68 182.972 318.68 182.212V178.983C318.68 176.969 317.026 175.317 315.012 175.317H311.782C311.041 175.317 309.958 174.918 309.388 174.424L306.386 171.841C305.075 170.72 302.928 170.72 301.598 171.841L298.614 174.443C298.044 174.918 296.961 175.317 296.22 175.317H292.933C290.919 175.317 289.266 176.969 289.266 178.983V182.231C289.266 182.972 288.867 184.035 288.392 184.605L285.827 187.626C284.724 188.936 284.724 191.064 285.827 192.374L288.392 195.395C288.867 195.965 289.266 197.028 289.266 197.769V201.017C289.266 203.031 290.919 204.683 292.933 204.683H296.22C296.961 204.683 298.044 205.082 298.614 205.576L301.617 208.159C302.928 209.28 305.075 209.28 306.405 208.159L309.407 205.576C309.977 205.082 311.041 204.683 311.801 204.683H315.031C317.046 204.683 318.699 203.031 318.699 201.017V197.788C318.699 197.047 319.098 195.965 319.592 195.395L322.176 192.393C323.278 191.083 323.278 188.917 322.157 187.607ZM311.896 186.41L302.719 195.585C302.453 195.851 302.092 196.003 301.712 196.003C301.332 196.003 300.971 195.851 300.705 195.585L296.106 190.988C295.555 190.437 295.555 189.525 296.106 188.974C296.657 188.423 297.569 188.423 298.12 188.974L301.712 192.564L309.882 184.396C310.433 183.846 311.345 183.846 311.896 184.396C312.447 184.947 312.447 185.859 311.896 186.41Z" fill="#FF6584"/>
<path d="M450.426 355.498L450.42 355.649L457.963 435.414H402.919L395.784 386.424L392.644 434.158L336.118 433.53L342.122 370.861L347.228 341.813V341.807L347.994 337.435H448.925L449.057 339.018L450.426 355.498Z" fill="#2F2E41"/>
<path d="M304.96 401.738C310.79 402.8 316.869 396.235 318.538 387.074C319.268 383.064 319.032 379.222 318.048 376.079L318.941 370.798L333.942 299.758C333.942 299.758 361.564 244.504 361.564 234.911C361.563 225.319 353.573 220.615 353.573 220.615L342.762 220.716L308.857 303.524L302.751 364.717L301.763 373.112C299.733 375.705 298.157 379.218 297.427 383.228C295.758 392.389 299.131 400.676 304.96 401.738Z" fill="#FFB6B6"/>
<path d="M412.5 197L404.891 163.146L372.231 168.799L367.593 206.755L412.5 197Z" fill="#FFB6B6"/>
<path d="M414 202.5L404.891 163.146L372.231 168.799L369.093 212.255L414 202.5Z" fill="#FFB6B6"/>
<path d="M485.912 234.746C485.912 234.746 462.673 191.409 458.277 187.013C456.32 185.056 453.243 185.028 450.43 185.599L418.081 174.451L407.116 168.291L407.089 176.606L389 192.037L371.091 183.067C371.291 175.919 371.604 176.606 371.604 176.606L358.414 192.037L332.663 204.599L332.677 204.712C330.788 205.371 328.996 206.5 327.639 208.367C322.614 215.276 294.981 358.719 294.981 358.719L324.5 365L342.333 280.507L345.225 303.205L336 365C336 365 387.619 380.144 407.089 367.582C426.56 355.021 455 374 455 374L454.339 336.575C454.763 335.898 455 335.5 455 335.5L451.054 265.217V246.669C455.839 253.335 461.613 259.068 468.326 261.753C490.308 270.546 485.912 234.746 485.912 234.746Z" fill="#3F3D56"/>
<path d="M385.148 172.888C401.741 172.888 415.193 159.436 415.193 142.842C415.193 126.248 401.741 112.796 385.148 112.796C368.554 112.796 355.102 126.248 355.102 142.842C355.102 159.436 368.554 172.888 385.148 172.888Z" fill="#FFB6B6"/>
<path d="M406.702 151.333C406.702 151.333 409.315 142.189 415.193 142.842C421.072 143.495 422.378 138.27 421.072 135.657C419.766 133.044 417.153 119.981 417.153 119.981C417.153 119.981 418.459 110.837 410.621 109.53C402.783 108.224 400.171 106.917 398.864 104.305C397.558 101.692 377.963 99.0794 371.431 102.998C364.899 106.917 359.674 114.437 355.102 116.556C350.53 118.675 346.611 122.594 349.223 129.125C351.836 135.657 355.625 148.432 355.625 148.432C355.625 148.432 362.287 146.108 363.593 150.027C364.899 153.946 359.674 148.72 366.206 138.27C372.737 127.819 372.737 117.368 383.188 121.287C393.639 125.206 405.396 123.9 404.09 131.738C402.783 139.576 406.702 151.333 406.702 151.333Z" fill="#2F2E41"/>
<path d="M459.96 216.993L444.459 209.623C444.459 209.623 443.235 199.861 437.517 196.379C436.544 194.06 435.426 191.512 434.41 189.493C431.898 184.501 435.666 175.08 432.526 175.08C429.386 175.08 424.743 184.988 424.989 187.641C425.178 189.678 426.861 193.234 427.209 196.347C423.38 197.791 420.29 200.266 418.259 202.237C416.501 203.943 415.848 206.488 416.535 208.839C418.526 215.651 423.502 229.721 430.642 229.721C440.063 229.721 442.575 227.837 442.575 227.837C442.575 227.837 447.054 245.116 461.5 247C475.946 248.884 459.96 216.993 459.96 216.993Z" fill="#FFB6B6"/>
<path d="M478.5 225L455 212L441 238.5L465.5 253.5L478.5 225Z" fill="#3F3D56"/>
<path d="M387 186L369.5 174V184.5L389 193L407.5 181V168L387 186Z" fill="white"/>
<path d="M395.5 320C393.5 339.2 389.333 362.333 387.5 371.5L391 320V278.5C393.333 284.333 397.5 300.8 395.5 320Z" fill="white"/>
<path d="M399.5 184.5L378.5 187L385.5 201.5L378.5 282L391 296L408.5 277L391 198L399.5 184.5Z" fill="#FFAA2C"/>
</g>
<defs>
<clipPath id="clip0_106_2">
<rect width="500" height="400" fill="white"/>
</clipPath>
</defs>
</svg>
